<?xml version="1.0" encoding="UTF-8"?>
<svg version="1.1" xmlns="http://www.w3.org/2000/svg" width="864" height="1184">
<path d="M0 0 C285.12 0 570.24 0 864 0 C864 390.72 864 781.44 864 1184 C578.88 1184 293.76 1184 0 1184 C0 793.28 0 402.56 0 0 Z " fill="#05060F" transform="translate(0,0)"/>
<path d="M0 0 C1.66606362 0.6681723 3.33244504 1.33555837 5 2 C5 2.66 5 3.32 5 4 C5.66 4 6.32 4 7 4 C7 4.66 7 5.32 7 6 C7.82951172 6.11794922 7.82951172 6.11794922 8.67578125 6.23828125 C16.60422088 8.83667743 22.6762499 17.39832392 27.0625 24.1875 C27.61683716 25.04154419 27.61683716 25.04154419 28.18237305 25.9128418 C31.48010919 31.27853169 33.38365044 36.6697678 33 43 C33.66 43 34.32 43 35 43 C35 45.31 35 47.62 35 50 C35.66 50 36.32 50 37 50 C37.0231306 63.52537105 37.04091877 77.05073742 37.05181217 90.57612419 C37.05703942 96.85593233 37.06413422 103.13572697 37.07543945 109.41552734 C37.08627391 115.47145852 37.09227803 121.52737669 37.09487724 127.5833168 C37.09673048 129.89826792 37.10034916 132.2132183 37.10573006 134.52816391 C37.11294787 137.76081656 37.11399062 140.99341486 37.11352539 144.22607422 C37.11712067 145.19136047 37.12071594 146.15664673 37.12442017 147.15118408 C37.1230455 148.02900543 37.12167084 148.90682678 37.12025452 149.81124878 C37.12163721 150.95888104 37.12163721 150.95888104 37.12304783 152.1296978 C37 154 37 154 36 156 C35.65941145 157.91187521 35.35150781 159.82965059 35.0625 161.75 C34.38179092 166.00827031 33.56978113 169.96341996 32 174 C31.34 174 30.68 174 30 174 C29.855625 174.78375 29.71125 175.5675 29.5625 176.375 C29 179 29 179 28 181 C27.34 181 26.68 181 26 181 C25.773125 181.680625 25.54625 182.36125 25.3125 183.0625 C23.68773854 186.6988709 21.67196743 190.02829263 19 193 C18.34 193 17.68 193 17 193 C16.34 194.32 15.68 195.64 15 197 C14.34 197 13.68 197 13 197 C13 197.66 13 198.32 13 199 C10.525 199.99 10.525 199.99 8 201 C8 201.66 8 202.32 8 203 C3.61538462 206 3.61538462 206 1 206 C1 206.66 1 207.32 1 208 C-5.625 211 -5.625 211 -9 211 C-9 211.66 -9 212.32 -9 213 C-10.37291868 213.48509793 -11.74846703 213.96275513 -13.125 214.4375 C-13.89070312 214.70433594 -14.65640625 214.97117187 -15.4453125 215.24609375 C-28.19434311 219.00842236 -44.76223368 218.23338625 -57 213 C-57.61359375 212.75121094 -58.2271875 212.50242187 -58.859375 212.24609375 C-62.59459144 210.64859416 -66.20789035 208.90915251 -69.765625 206.94921875 C-80.86249438 200.84359177 -92.38868872 195.15076626 -105 193 C-105 192.34 -105 191.68 -105 191 C-110.24606793 190.27178519 -115.31195898 189.86580522 -120.6184082 189.82641602 C-121.33342499 189.819729 -122.04844177 189.81304199 -122.78512573 189.80615234 C-124.3231729 189.7922096 -125.86123944 189.78028233 -127.39931679 189.77020454 C-129.84360962 189.75361558 -132.28775957 189.73037257 -134.73197937 189.70530701 C-141.67663286 189.63502315 -148.62134348 189.57459575 -155.56616211 189.52319336 C-159.82894665 189.49117781 -164.09156201 189.44985313 -168.35420799 189.40299797 C-169.9667065 189.38711949 -171.57924374 189.37473381 -173.19179726 189.36609077 C-181.96573533 189.31838024 -190.40925964 189.02266464 -199 187 C-199 186.34 -199 185.68 -199 185 C-200.08667969 184.72736328 -200.08667969 184.72736328 -201.1953125 184.44921875 C-214.73943121 180.92774789 -214.73943121 180.92774789 -219 175 C-219.763125 174.566875 -220.52625 174.13375 -221.3125 173.6875 C-224.40434614 171.74610824 -226.28818584 169.53131692 -228.5703125 166.71875 C-229.94545248 164.99271892 -229.94545248 164.99271892 -231.4921875 163.60546875 C-241.76772912 152.66441278 -244.60848669 135.44249459 -244.375 121.09765625 C-243.28107223 105.03645242 -236.10691082 87.77097583 -224 77 C-223.34 77 -222.68 77 -222 77 C-222 76.34 -222 75.68 -222 75 C-209.36507537 63.82887762 -191.57635846 58.82419014 -175 59 C-173.26814723 53.80444168 -173.30704837 49.55914116 -175.5 44.625 C-175.995 43.75875 -176.49 42.8925 -177 42 C-177 41.34 -177 40.68 -177 40 C-177.66 40 -178.32 40 -179 40 C-180.25664978 37.09399739 -181 35.20395416 -181 32 C-181.99 31.67 -182.98 31.34 -184 31 C-185.1875 27.9375 -185.1875 27.9375 -186 25 C-186.66 25 -187.32 25 -188 25 C-188.40992188 24.24074219 -188.81984375 23.48148438 -189.2421875 22.69921875 C-189.78101563 21.70535156 -190.31984375 20.71148438 -190.875 19.6875 C-191.40867187 18.70136719 -191.94234375 17.71523438 -192.4921875 16.69921875 C-194.00722126 13.90413542 -194.00722126 13.90413542 -196 11 C-196.1953125 8.73828125 -196.1953125 8.73828125 -196.125 6.3125 C-196.10695313 5.50425781 -196.08890625 4.69601562 -196.0703125 3.86328125 C-196.04710937 3.24839844 -196.02390625 2.63351562 -196 2 C-194.68 1.67 -193.36 1.34 -192 1 C-192 0.01 -192 -0.98 -192 -2 C-188.75736931 -3.62131535 -185.50492484 -3.5558183 -182 -3 C-176.86577823 0.06078606 -175.17203756 3.25479748 -173.01171875 8.71484375 C-171.98034173 11.04440188 -170.76937773 12.89889515 -169.25 14.9375 C-167 18 -167 18 -167 20 C-166.34 20 -165.68 20 -165 20 C-164.01 23.465 -164.01 23.465 -163 27 C-162.34 27 -161.68 27 -161 27 C-159.68523023 28.63753983 -158.44789592 30.33762273 -157.25 32.0625 C-156.17105469 33.56103516 -156.17105469 33.56103516 -155.0703125 35.08984375 C-153.8563441 36.79627103 -152.65661578 38.51329713 -151.4921875 40.25390625 C-148.81838078 43.91320173 -146.78785857 45.4594635 -142.25 46.1875 C-134.16723363 46.442362 -127.74698896 42.63437405 -121.21484375 38.29296875 C-117.54811381 36.15242623 -113.59597104 34.72163812 -109.63671875 33.2109375 C-106.98888613 32.1863715 -106.98888613 32.1863715 -105.39453125 30.3515625 C-104 29 -104 29 -100 29 C-100 28.34 -100 27.68 -100 27 C-98.30725716 25.43567213 -96.54430148 23.94671428 -94.75 22.5 C-93.77546875 21.7059375 -92.8009375 20.911875 -91.796875 20.09375 C-89.55105238 18.41251966 -87.5534197 17.11864101 -85 16 C-85 15.34 -85 14.68 -85 14 C-83.25588699 12.76337138 -81.45293515 11.60897865 -79.625 10.5 C-75.57056853 8.05783493 -75.57056853 8.05783493 -72 5 C-70.27553076 4.25164542 -68.54945984 3.50625079 -66.80859375 2.796875 C-64.78865278 1.95545808 -64.78865278 1.95545808 -62.25 0.3125 C-60 -1 -60 -1 -57 -1 C-57 -1.66 -57 -2.32 -57 -3 C-40.16166811 -10.89296807 -16.37965496 -7.03286631 0 0 Z " fill="#FAFAFA" transform="translate(751,586)"/>
<path d="M0 0 C3.10781724 2.05115938 3.73153985 2.82236692 5.125 6.0625 C5.785 6.0625 6.445 6.0625 7.125 6.0625 C7.125 6.7225 7.125 7.3825 7.125 8.0625 C8.00865234 8.21332031 8.00865234 8.21332031 8.91015625 8.3671875 C15.16017184 10.32927352 19.71930005 17.79914553 23.125 23.0625 C23.125 23.7225 23.125 24.3825 23.125 25.0625 C23.785 25.0625 24.445 25.0625 25.125 25.0625 C28.19773296 31.10792345 29.87097319 36.28845178 30.125 43.0625 C30.20234375 44.5475 30.20234375 44.5475 30.28125 46.0625 C30.68021738 59.89336904 27.73470393 70.12678735 19.125 81.0625 C18.2896875 81.87847656 18.2896875 81.87847656 17.4375 82.7109375 C15.85712038 84.14271858 15.85712038 84.14271858 15.125 87.0625 C13.8096659 87.76401152 12.47382408 88.42775925 11.125 89.0625 C10.3825 89.8359375 10.3825 89.8359375 9.625 90.625 C7.85039815 92.32566011 6.51493744 92.65044182 4.125 93.0625 C4.125 93.7225 4.125 94.3825 4.125 95.0625 C2.27301206 95.85925015 0.4182889 96.64964361 -1.4375 97.4375 C-2.98630859 98.09878906 -2.98630859 98.09878906 -4.56640625 98.7734375 C-11.36780008 101.4233312 -17.26253805 102.45132118 -24.5 102.4375 C-25.37793213 102.43588867 -26.25586426 102.43427734 -27.16040039 102.43261719 C-36.95756068 102.24944235 -45.22199963 100.52094971 -52.875 94.0625 C-53.535 93.7325 -54.195 93.4025 -54.875 93.0625 C-54.875 92.4025 -54.875 91.7425 -54.875 91.0625 C-55.390625 90.835625 -55.90625 90.60875 -56.4375 90.375 C-61.00263561 87.91685006 -64.9783906 85.4074141 -67.875 81.0625 C-67.875 80.0725 -67.875 79.0825 -67.875 78.0625 C-68.535 78.0625 -69.195 78.0625 -69.875 78.0625 C-71.13164978 75.15649739 -71.875 73.26645416 -71.875 70.0625 C-72.535 70.0625 -73.195 70.0625 -73.875 70.0625 C-73.96136719 69.39863281 -74.04773438 68.73476563 -74.13671875 68.05078125 C-75.05989155 62.2491907 -75.92173035 58.71848474 -80.875 55.0625 C-83.82418686 54.09953467 -86.56537137 53.91758881 -89.65600586 53.86962891 C-90.60056137 53.85356598 -91.54511688 53.83750305 -92.51829529 53.82095337 C-96.81549165 53.776337 -101.11253842 53.73547465 -105.40991211 53.71240234 C-107.6766179 53.69581312 -109.94327075 53.66848452 -112.2097168 53.63037109 C-115.48253429 53.57565364 -118.75413073 53.55373967 -122.02734375 53.5390625 C-123.03893051 53.51639313 -124.05051727 53.49372375 -125.09275818 53.47036743 C-130.96321806 53.47615042 -130.96321806 53.47615042 -135.94750977 56.41943359 C-137.91659312 59.03666747 -137.91659312 59.03666747 -139.5625 61.875 C-139.995625 62.596875 -140.42875 63.31875 -140.875 64.0625 C-141.535 64.0625 -142.195 64.0625 -142.875 64.0625 C-143.2153125 65.1453125 -143.2153125 65.1453125 -143.5625 66.25 C-145.13835128 69.62682417 -147.08376616 71.62017039 -149.875 74.0625 C-150.535 74.0625 -151.195 74.0625 -151.875 74.0625 C-151.875 74.7225 -151.875 75.3825 -151.875 76.0625 C-153.36 76.5575 -153.36 76.5575 -154.875 77.0625 C-155.205 77.7225 -155.535 78.3825 -155.875 79.0625 C-156.865 79.0625 -157.855 79.0625 -158.875 79.0625 C-158.875 79.7225 -158.875 80.3825 -158.875 81.0625 C-159.85082031 81.19527344 -160.82664062 81.32804687 -161.83203125 81.46484375 C-163.10433594 81.64144531 -164.37664062 81.81804687 -165.6875 82 C-166.95207031 82.17402344 -168.21664063 82.34804688 -169.51953125 82.52734375 C-172.85821703 82.96642455 -172.85821703 82.96642455 -175.875 84.0625 C-176.205 111.1225 -176.535 138.1825 -176.875 166.0625 C-176.215 166.0625 -175.555 166.0625 -174.875 166.0625 C-174.215 167.0525 -173.555 168.0425 -172.875 169.0625 C-170.20135562 169.31969622 -167.67539645 169.42451404 -165 169.4375 C-152.72877798 169.83718458 -142.75036777 174.14287021 -134.0546875 182.89453125 C-129.875 187.51162791 -129.875 187.51162791 -129.875 191.0625 C-129.215 191.0625 -128.555 191.0625 -127.875 191.0625 C-127.875 192.0525 -127.875 193.0425 -127.875 194.0625 C-127.215 194.0625 -126.555 194.0625 -125.875 194.0625 C-125.545 196.3725 -125.215 198.6825 -124.875 201.0625 C-124.215 201.0625 -123.555 201.0625 -122.875 201.0625 C-122.46332095 211.45739594 -122.15044621 220.48684188 -126.875 230.0625 C-127.535 230.0625 -128.195 230.0625 -128.875 230.0625 C-129.205 231.3825 -129.535 232.7025 -129.875 234.0625 C-130.535 234.0625 -131.195 234.0625 -131.875 234.0625 C-132.184375 234.84625 -132.49375 235.63 -132.8125 236.4375 C-134.25992578 240.0134931 -134.97565011 241.31442418 -138.3125 243.1875 C-138.92996094 243.54070312 -139.54742187 243.89390625 -140.18359375 244.2578125 C-141.875 245.0625 -141.875 245.0625 -143.875 245.0625 C-143.875 245.7225 -143.875 246.3825 -143.875 247.0625 C-151.70401353 250.44491743 -158.365168 251.65062794 -166.859375 251.55859375 C-168.50912323 251.5607766 -168.50912323 251.5607766 -170.19219971 251.56300354 C-172.49811475 251.5613552 -174.80404203 251.54991477 -177.10986328 251.52905273 C-180.62970739 251.49996109 -184.14805455 251.50849486 -187.66796875 251.52148438 C-189.91927811 251.51524975 -192.17058276 251.50686098 -194.421875 251.49609375 C-195.98926422 251.50049721 -195.98926422 251.50049721 -197.58831787 251.50498962 C-203.45577112 251.42943439 -207.66741322 250.81744309 -212.875 248.0625 C-212.875 247.4025 -212.875 246.7425 -212.875 246.0625 C-213.555625 246.041875 -214.23625 246.02125 -214.9375 246 C-219.36803493 244.58599949 -221.78237914 241.41894634 -224.875 238.0625 C-225.41511719 237.53398438 -225.95523438 237.00546875 -226.51171875 236.4609375 C-229.07245407 233.83416603 -229.875 231.71203839 -229.875 228.0625 C-230.535 228.0625 -231.195 228.0625 -231.875 228.0625 C-234.4834316 222.08484425 -235.17632975 216.88203457 -235.1875 210.4375 C-235.19523437 209.36350952 -235.19523437 209.36350952 -235.203125 208.26782227 C-235.14200496 203.53047367 -234.35725517 199.56241411 -232.875 195.0625 C-232.215 195.0625 -231.555 195.0625 -230.875 195.0625 C-230.606875 194.134375 -230.33875 193.20625 -230.0625 192.25 C-228.90584794 189.14530237 -228.20841464 188.20924147 -225.875 186.0625 C-225.483125 185.299375 -225.09125 184.53625 -224.6875 183.75 C-220.62480401 177.7260025 -214.91379816 174.55147653 -207.875 173.0625 C-207.070625 172.85625 -206.26625 172.65 -205.4375 172.4375 C-204.921875 172.31375 -204.40625 172.19 -203.875 172.0625 C-203.875 171.4025 -203.875 170.7425 -203.875 170.0625 C-203.22625916 169.51829407 -202.57751831 168.97408813 -201.90911865 168.41339111 C-199.15308148 165.2281574 -199.30081515 162.46865076 -199.32910156 158.44824219 C-199.31876389 157.68687958 -199.30842621 156.92551697 -199.29777527 156.14108276 C-199.26833164 153.63029803 -199.26684782 151.12031886 -199.265625 148.609375 C-199.25064434 146.86629701 -199.23391743 145.12323322 -199.21551514 143.38018799 C-199.17181632 138.79678701 -199.15183699 134.21357752 -199.13677979 129.63000488 C-199.11721778 124.95113796 -199.07524677 120.2724781 -199.03515625 115.59375 C-198.95982678 106.4167305 -198.90955192 97.23975728 -198.875 88.0625 C-199.514375 87.794375 -200.15375 87.52625 -200.8125 87.25 C-202.875 86.0625 -202.875 86.0625 -203.875 83.0625 C-205.01322079 83.06195523 -206.15144157 83.06141047 -207.3241539 83.06084919 C-235.04285923 83.04644213 -262.76140774 83.00337714 -290.48002243 82.93040943 C-293.15058122 82.92351097 -295.82114004 82.916653 -298.49169922 82.90991211 C-299.15545859 82.90823305 -299.81921796 82.90655398 -300.50309125 82.90482404 C-310.56668411 82.87984985 -320.63022605 82.86942995 -330.69384766 82.86694336 C-342.37984592 82.86390019 -354.06566138 82.843362 -365.75158906 82.80197543 C-371.93698313 82.78067611 -378.12211749 82.76802925 -384.30754852 82.77634621 C-390.13530152 82.78390547 -395.96252911 82.76798651 -401.79018593 82.73443985 C-403.92338068 82.7262293 -406.05662791 82.72642965 -408.18981743 82.73590279 C-423.74886313 82.79813011 -435.09197153 81.70626587 -446.81640625 70.39453125 C-449.64894764 67.18575096 -451.35472577 64.03300343 -452.875 60.0625 C-453.43564795 58.79084852 -453.99806636 57.5199757 -454.5625 56.25 C-458.22145731 47.36396082 -458.60544416 35.29125003 -455.125 26.1875 C-453.51109406 22.85133401 -451.68603147 20.51081773 -448.875 18.0625 C-448.483125 17.299375 -448.09125 16.53625 -447.6875 15.75 C-442.66430873 8.30181984 -433.58188617 2.95111443 -424.875 1.0625 C-416.59422918 0.11854918 -408.1998669 0.39895404 -399.88012695 0.44726562 C-397.34126414 0.44376116 -394.80240352 0.43809892 -392.2635498 0.43045044 C-386.10578589 0.41771455 -379.94844015 0.42809073 -373.79071227 0.44956368 C-366.61058191 0.4736755 -359.43052594 0.47185317 -352.25036409 0.46925777 C-339.43596516 0.46557485 -326.62172181 0.48633244 -313.80737305 0.52050781 C-301.38871329 0.55361531 -288.97021667 0.56776174 -276.55151367 0.56152344 C-263.00541233 0.55475221 -249.45937912 0.55723883 -235.91328782 0.57688284 C-235.1963723 0.57792232 -234.47945679 0.57896181 -233.74081656 0.5800328 C-232.30118746 0.58212358 -230.8615584 0.58423455 -229.42192936 0.58636597 C-224.42312426 0.59324627 -219.42434023 0.59393346 -214.42553139 0.59248352 C-207.69407402 0.59088962 -200.96283854 0.60584446 -194.23142242 0.63171005 C-191.76315186 0.63886399 -189.29486059 0.64095921 -186.82658195 0.63759232 C-183.45390553 0.63386964 -180.08179402 0.64865318 -176.70918274 0.66809082 C-175.73582814 0.66276289 -174.76247354 0.65743497 -173.75962335 0.65194559 C-167.91019228 0.70998779 -162.09141028 1.16773006 -156.875 4.0625 C-156.545 5.0525 -156.215 6.0425 -155.875 7.0625 C-154.21836443 7.75371691 -152.54978923 8.41650987 -150.875 9.0625 C-148.453125 10.8671875 -148.453125 10.8671875 -146.125 12.9375 C-145.34640625 13.61554688 -144.5678125 14.29359375 -143.765625 14.9921875 C-141.83842197 17.10255445 -141.25026526 18.27302826 -140.875 21.0625 C-140.215 21.0625 -139.555 21.0625 -138.875 21.0625 C-138.68164062 21.62839844 -138.48828125 22.19429688 -138.2890625 22.77734375 C-137.89847656 23.87755859 -137.89847656 23.87755859 -137.5 25 C-137.11714844 26.09634766 -137.11714844 26.09634766 -136.7265625 27.21484375 C-136.02228587 29.24932116 -136.02228587 29.24932116 -133.875 30.0625 C-133.875 30.7225 -133.875 31.3825 -133.875 32.0625 C-117.045 32.0625 -100.215 32.0625 -82.875 32.0625 C-82.875 31.4025 -82.875 30.7425 -82.875 30.0625 C-82.29492188 29.87816406 -81.71484375 29.69382812 -81.1171875 29.50390625 C-73.51443781 26.68110315 -70.41653811 22.14557622 -66.875 15.0625 C-66.215 15.0625 -65.555 15.0625 -64.875 15.0625 C-64.875 14.4025 -64.875 13.7425 -64.875 13.0625 C-63.4140625 11.5546875 -63.4140625 11.5546875 -61.5 9.9375 C-60.87351562 9.39867187 -60.24703125 8.85984375 -59.6015625 8.3046875 C-57.875 7.0625 -57.875 7.0625 -55.875 7.0625 C-55.875 6.4025 -55.875 5.7425 -55.875 5.0625 C-37.71034505 -4.59955051 -19.54867959 -9.0087722 0 0 Z " fill="#F9FAF9" transform="translate(533.875,371.9375)"/>
<path d="M0 0 C1.01433609 -0.00191345 2.02867218 -0.0038269 3.07374573 -0.00579834 C5.21103159 -0.00715449 7.34832584 -0.00349801 9.4855957 0.00488281 C12.73993627 0.01557908 15.99372346 0.00497366 19.24804688 -0.0078125 C21.33203246 -0.00649059 23.4160177 -0.00392754 25.5 0 C26.46481796 -0.00404846 27.42963593 -0.00809692 28.4236908 -0.01226807 C34.06095776 0.02645499 38.90563973 0.66484883 44.31640625 2.265625 C44.31640625 2.925625 44.31640625 3.585625 44.31640625 4.265625 C45.03828125 4.3275 45.76015625 4.389375 46.50390625 4.453125 C50.22229957 5.52732751 51.69272835 7.44997066 54.31640625 10.265625 C55.32703125 11.049375 56.33765625 11.833125 57.37890625 12.640625 C63.03440424 17.69447427 65.9325608 24.19984926 66.50683594 31.77880859 C66.58463834 34.610513 66.58925003 37.43299658 66.56640625 40.265625 C66.57800781 41.70421875 66.57800781 41.70421875 66.58984375 43.171875 C66.57494264 48.5958793 66.1104967 53.1396523 64.31640625 58.265625 C63.65640625 58.265625 62.99640625 58.265625 62.31640625 58.265625 C62.25453125 58.9875 62.19265625 59.709375 62.12890625 60.453125 C61.05647659 64.1653815 59.21882712 65.77783568 56.31640625 68.265625 C54.83140625 68.760625 54.83140625 68.760625 53.31640625 69.265625 C53.31640625 69.925625 53.31640625 70.585625 53.31640625 71.265625 C48.93179087 74.265625 48.93179087 74.265625 46.31640625 74.265625 C46.31640625 74.925625 46.31640625 75.585625 46.31640625 76.265625 C40.05641753 79.01437738 35.02280022 79.68772434 28.2265625 79.59375 C27.28260117 79.59187683 26.33863983 79.59000366 25.36607361 79.58807373 C23.38016194 79.58138533 21.39426272 79.56753536 19.40844727 79.546875 C16.391312 79.51575297 13.37470179 79.5058984 10.35742188 79.5 C8.41796247 79.49082633 6.47850831 79.48044941 4.5390625 79.46875 C3.64816422 79.46450012 2.75726593 79.46025024 1.83937073 79.45587158 C-10.06410434 79.32202141 -20.30993576 78.32521869 -29.37890625 69.703125 C-33.89335973 64.47739107 -36.77462673 60.14780388 -37.68359375 53.265625 C-38.34359375 53.265625 -39.00359375 53.265625 -39.68359375 53.265625 C-41.56968755 41.46584807 -42.76179816 29.50770657 -36.546875 18.828125 C-34.09888873 15.46150238 -31.40722955 12.5761076 -28.3203125 9.7890625 C-26.57746122 8.34503506 -26.57746122 8.34503506 -25.68359375 6.265625 C-24.08203125 5.265625 -24.08203125 5.265625 -22.05859375 4.265625 C-21.40632813 3.935625 -20.7540625 3.605625 -20.08203125 3.265625 C-13.25635574 0.41974075 -7.33464695 -0.03071239 0 0 Z " fill="#FAFAF9" transform="translate(494.68359375,489.734375)"/>
<path d="M0 0 C0.66 0 1.32 0 2 0 C2.51046875 1.17755859 2.51046875 1.17755859 3.03125 2.37890625 C8.05320028 13.26425062 13.78827324 18.82155554 25 23 C25 23.66 25 24.32 25 25 C24.21496094 25.3403125 23.42992187 25.680625 22.62109375 26.03125 C11.73574938 31.05320028 6.17844446 36.78827324 2 48 C1.34 48 0.68 48 0 48 C-0.3403125 47.21496094 -0.680625 46.42992187 -1.03125 45.62109375 C-6.05320028 34.73574938 -11.78827324 29.17844446 -23 25 C-23 24.34 -23 23.68 -23 23 C-22.21496094 22.6596875 -21.42992187 22.319375 -20.62109375 21.96875 C-9.73574938 16.94679972 -4.17844446 11.21172676 0 0 Z " fill="#7F7F84" transform="translate(807,1104)"/>
<path d="M0 0 C0.33 0 0.66 0 1 0 C1.04636363 13.30862227 1.08188975 26.61722529 1.10362434 39.9259119 C1.11405644 46.10582904 1.1282053 52.28569087 1.15087891 58.46557617 C1.17262754 64.4307605 1.18457295 70.39589167 1.18975449 76.36111259 C1.19344659 78.63565342 1.20065633 80.91019138 1.21146011 83.18470955 C1.2260017 86.37328479 1.2279768 89.56164102 1.22705078 92.75024414 C1.23424133 93.68820328 1.24143188 94.62616241 1.24884033 95.59254456 C1.23253216 100.79037034 0.69682926 105.07826014 -1 110 C-1.33 110 -1.66 110 -2 110 C-2.125 102.25 -2.125 102.25 -1 100 C-0.89701001 98.65727897 -0.85359401 97.30971747 -0.84178162 95.96310425 C-0.82709839 94.69685715 -0.82709839 94.69685715 -0.81211853 93.4050293 C-0.80636307 92.477146 -0.8006076 91.5492627 -0.79467773 90.59326172 C-0.78477814 89.61761261 -0.77487854 88.6419635 -0.76467896 87.63674927 C-0.73300689 84.40108698 -0.70828398 81.16540999 -0.68359375 77.9296875 C-0.66302915 75.69051728 -0.64203282 73.45135099 -0.62062073 71.21218872 C-0.56534904 65.31031467 -0.51596226 59.40840529 -0.46777344 53.50646973 C-0.41759559 47.48735397 -0.36189015 41.46828971 -0.30664062 35.44921875 C-0.19899672 23.63285645 -0.09756562 11.81644951 0 0 Z " fill="#17191E" transform="translate(788,640)"/>
<path d="M0 0 C0.66 0.99 1.32 1.98 2 3 C1.47792969 2.81824219 0.95585938 2.63648438 0.41796875 2.44921875 C-13.97049747 -2.46453066 -28.76985183 -6.20634698 -44 -3 C-34.47155159 -12.52844841 -9.87338561 -6.31896679 0 0 Z " fill="#898A8D" transform="translate(537,374)"/>
<path d="M0 0 C0.33 0 0.66 0 1 0 C1.125 7.75 1.125 7.75 0 10 C0.66 10 1.32 10 2 10 C2 17.59 2 25.18 2 33 C-1.78718507 27.31922239 -2.32028137 22.18651919 -2.25 15.5625 C-2.25773437 14.83740234 -2.26546875 14.11230469 -2.2734375 13.36523438 C-2.25613905 8.55193961 -1.51688315 4.56870759 0 0 Z " fill="#E5E7E7" transform="translate(301,567)"/>
<path d="M0 0 C2 2 2 2 2.125 4.625 C2.08375 5.40875 2.0425 6.1925 2 7 C2.66 7 3.32 7 4 7 C4.05413245 9.89608593 4.09373641 12.79115195 4.125 15.6875 C4.15013672 16.91243164 4.15013672 16.91243164 4.17578125 18.16210938 C4.2114802 22.57092929 4.07580814 25.98731576 2 30 C1.67 30 1.34 30 1 30 C1 25.05 1 20.1 1 15 C0.34 15 -0.32 15 -1 15 C-1 13.02 -1 11.04 -1 9 C-0.67 9 -0.34 9 0 9 C0 6.03 0 3.06 0 0 Z " fill="#A3A4A6" transform="translate(407,566)"/>
<path d="M0 0 C0.33 0 0.66 0 1 0 C1 2.97 1 5.94 1 9 C1.66 9 2.32 9 3 9 C2.83757812 9.56332031 2.67515625 10.12664062 2.5078125 10.70703125 C1.97686383 13.10446869 1.86689329 15.23522125 1.875 17.6875 C1.87242188 18.47511719 1.86984375 19.26273437 1.8671875 20.07421875 C1.78872222 22.00764914 1.78872222 22.00764914 3 23 C3.04092937 25.33297433 3.04241723 27.66705225 3 30 C-0.67190108 26.32809892 -1.1066463 21.4838386 -1.23046875 16.484375 C-1.2265364 14.9061899 -1.21207539 13.32799864 -1.1875 11.75 C-1.18685547 10.94820313 -1.18621094 10.14640625 -1.18554688 9.3203125 C-1.16036255 5.97359527 -1.06478118 3.19434355 0 0 Z " fill="#AFB4B4" transform="translate(78,401)"/>
<path d="M0 0 C1.98 0.99 1.98 0.99 4 2 C4 19.16 4 36.32 4 54 C3.67 54 3.34 54 3 54 C3 37.17 3 20.34 3 3 C2.01 2.67 1.02 2.34 0 2 C0 1.34 0 0.68 0 0 Z " fill="#0E0D12" transform="translate(330,458)"/>
<path d="M0 0 C0.66 0.33 1.32 0.66 2 1 C-4.5633546 8.98541477 -4.5633546 8.98541477 -8 11 C-8.99 11 -9.98 11 -11 11 C-11.66 12.32 -12.32 13.64 -13 15 C-14.65 15 -16.3 15 -18 15 C-14.83525695 11.74483572 -11.67247209 8.67991207 -8 6 C-7.34 6 -6.68 6 -6 6 C-6 5.34 -6 4.68 -6 4 C-4.03852126 2.61061923 -2.03833424 1.2739589 0 0 Z " fill="#BDBFBF" transform="translate(672,596)"/>
<path d="M0 0 C2.475 0.495 2.475 0.495 5 1 C1.86469771 3.09020153 1.1816823 3.2474595 -2.37963867 3.22705078 C-3.26032516 3.22689972 -4.14101166 3.22674866 -5.04838562 3.22659302 C-5.99534805 3.21627045 -6.94231049 3.20594788 -7.91796875 3.1953125 C-8.89034988 3.1924826 -9.86273102 3.18965271 -10.86457825 3.18673706 C-13.97234366 3.17553599 -17.07982159 3.15043148 -20.1875 3.125 C-22.29361563 3.11497011 -24.39973578 3.10584427 -26.50585938 3.09765625 C-31.6706838 3.07559688 -36.83529315 3.04106746 -42 3 C-42 2.67 -42 2.34 -42 2 C-28.14 2 -14.28 2 0 2 C0 1.34 0 0.68 0 0 Z " fill="#C6C7C9" transform="translate(531,566)"/>
<path d="M0 0 C0.33 0 0.66 0 1 0 C1.33 6.93 1.66 13.86 2 21 C2.66 21 3.32 21 4 21 C4.66 23.64 5.32 26.28 6 29 C2.44314662 25.91739374 1.14796245 23.55085115 0 19 C-0.22795906 15.70276034 -0.18966719 12.42800123 -0.125 9.125 C-0.11597656 8.24585938 -0.10695313 7.36671875 -0.09765625 6.4609375 C-0.07424577 4.3071729 -0.0383801 2.15354986 0 0 Z " fill="#7D8084" transform="translate(453,522)"/>
<path d="M0 0 C0.33 0 0.66 0 1 0 C1.04976954 4.14427102 1.08589288 8.28837953 1.10986328 12.43286133 C1.11986557 13.84011876 1.13347178 15.2473557 1.15087891 16.65454102 C1.17538366 18.68771448 1.18654083 20.72061106 1.1953125 22.75390625 C1.20578613 23.97408447 1.21625977 25.1942627 1.22705078 26.45141602 C0.98048118 30.30506028 0.18578175 33.34213 -1 37 C-1.33 37 -1.66 37 -2 37 C-2.125 29.25 -2.125 29.25 -1 27 C-0.84588894 24.9692523 -0.75017547 22.93393579 -0.68359375 20.8984375 C-0.64169922 19.68671875 -0.59980469 18.475 -0.55664062 17.2265625 C-0.51732422 15.95554687 -0.47800781 14.68453125 -0.4375 13.375 C-0.39431641 12.09625 -0.35113281 10.8175 -0.30664062 9.5 C-0.20030114 6.33344652 -0.09827167 3.16681247 0 0 Z " fill="#181A20" transform="translate(788,713)"/>
<path d="M0 0 C0.66 0.33 1.32 0.66 2 1 C-1.72346836 5.42094803 -5.29521038 9.57833482 -10 13 C-10 10 -10 10 -9 8 C-8.34 8 -7.68 8 -7 8 C-7 7.34 -7 6.68 -7 6 C-5.46875 4.4921875 -5.46875 4.4921875 -3.5 2.875 C-2.8503125 2.33617187 -2.200625 1.79734375 -1.53125 1.2421875 C-0.77328125 0.62730469 -0.77328125 0.62730469 0 0 Z " fill="#C4C5C7" transform="translate(476,379)"/>
<path d="M0 0 C2.31 0.33 4.62 0.66 7 1 C7 1.33 7 1.66 7 2 C5.53240234 2.18175781 5.53240234 2.18175781 4.03515625 2.3671875 C-3.0626831 3.26720693 -10.04288317 4.29123446 -17 6 C-13.99988164 2.99988164 -10.83292899 2.09568308 -6.60546875 1.875 C-4.39999233 1.875 -2.20358941 1.91185642 0 2 C0 1.34 0 0.68 0 0 Z " fill="#323138" transform="translate(569,643)"/>
<path d="M0 0 C0.33 0 0.66 0 1 0 C1.09765625 6.15234375 1.09765625 6.15234375 1 8 C0.67 8.33 0.34 8.66 0 9 C-0.08631874 10.34267413 -0.10706473 11.68974322 -0.09765625 13.03515625 C-0.09443359 13.84404297 -0.09121094 14.65292969 -0.08789062 15.48632812 C-0.07951172 16.33646484 -0.07113281 17.18660156 -0.0625 18.0625 C-0.05798828 18.91650391 -0.05347656 19.77050781 -0.04882812 20.65039062 C-0.03700373 22.76695663 -0.01906769 24.88348685 0 27 C-2.5304183 23.20437255 -2.29505701 20.14305886 -2.25 15.75 C-2.25773437 15.01136719 -2.26546875 14.27273438 -2.2734375 13.51171875 C-2.25626962 8.64462369 -1.53932464 4.61797393 0 0 Z " fill="#A2A4A5" transform="translate(301,567)"/>
<path d="M0 0 C-5.76922444 3.13544807 -10.56760233 3.63890592 -17 2 C-17.33 1.34 -17.66 0.68 -18 0 C-17.02160156 0.01740234 -17.02160156 0.01740234 -16.0234375 0.03515625 C-11.28436097 0.08408477 -4.01749805 -2.00874902 0 0 Z " fill="#4B4C51" transform="translate(621,630)"/>
<path d="M0 0 C0.66 0.33 1.32 0.66 2 1 C0.88424427 4.34726719 0.48655378 4.62079748 -2.4375 6.25 C-4.2009375 7.11625 -4.2009375 7.11625 -6 8 C-6.66 7.67 -7.32 7.34 -8 7 C-5.36 4.69 -2.72 2.38 0 0 Z " fill="#BBBBC0" transform="translate(317,548)"/>
<path d="M0 0 C1.98 0.99 1.98 0.99 4 2 C4 8.27 4 14.54 4 21 C3.67 21 3.34 21 3 21 C3 15.06 3 9.12 3 3 C2.01 2.67 1.02 2.34 0 2 C0 1.34 0 0.68 0 0 Z " fill="#17181F" transform="translate(330,458)"/>
<path d="M0 0 C0 0.66 0 1.32 0 2 C-0.99 2 -1.98 2 -3 2 C-3.185625 2.61875 -3.37125 3.2375 -3.5625 3.875 C-5.71437233 7.05602866 -8.37533763 7.19451947 -12 8 C-4.43243243 0 -4.43243243 0 0 0 Z " fill="#A4A5AA" transform="translate(543,653)"/>
<path d="M0 0 C0.66 0.33 1.32 0.66 2 1 C0.6875 2.5 0.6875 2.5 -1 4 C-1.99 4 -2.98 4 -4 4 C-4 4.66 -4 5.32 -4 6 C-5.98 6.33 -7.96 6.66 -10 7 C-7.97838446 3.96757669 -7.12981578 3.29189454 -4 1.75 C-3.29875 1.39421875 -2.5975 1.0384375 -1.875 0.671875 C-1.25625 0.45015625 -0.6375 0.2284375 0 0 Z " fill="#ABA9AC" transform="translate(636,621)"/>
<path d="M0 0 C1.97265625 0.265625 1.97265625 0.265625 4.97265625 2.265625 C4.64265625 2.925625 4.31265625 3.585625 3.97265625 4.265625 C-1.96734375 3.275625 -1.96734375 3.275625 -8.02734375 2.265625 C-5.42029477 -0.34142398 -3.55396134 0.02657167 0 0 Z " fill="#AEB1AB" transform="translate(567.02734375,582.734375)"/>
<path d="M0 0 C0.66 0.33 1.32 0.66 2 1 C0.68 2.32 -0.64 3.64 -2 5 C-2.66 4.67 -3.32 4.34 -4 4 C-4 4.66 -4 5.32 -4 6 C-5.98 6.33 -7.96 6.66 -10 7 C-7 5 -7 5 -5 5 C-5 4.34 -5 3.68 -5 3 C-2.625 1.3125 -2.625 1.3125 0 0 Z " fill="#3B3C44" transform="translate(757,789)"/>
<path d="M0 0 C0.33 0.66 0.66 1.32 1 2 C0.0625 4.125 0.0625 4.125 -1 6 C-1.66 6 -2.32 6 -3 6 C-3.33 7.32 -3.66 8.64 -4 10 C-4.66 10 -5.32 10 -6 10 C-4.79157144 5.56909529 -3.48331435 3.01887244 0 0 Z " fill="#AFB1B3" transform="translate(463,503)"/>
<path d="M0 0 C1.31618998 0.78551657 2.62785228 1.5786237 3.9375 2.375 C4.66839844 2.81585937 5.39929688 3.25671875 6.15234375 3.7109375 C8 5 8 5 9 7 C6.03 6.01 3.06 5.02 0 4 C0 2.68 0 1.36 0 0 Z " fill="#484A51" transform="translate(526,757)"/>
<path d="M0 0 C0.99 0.33 1.98 0.66 3 1 C3.73046875 2.84765625 3.73046875 2.84765625 4.1875 5.0625 C4.34605469 5.79597656 4.50460937 6.52945313 4.66796875 7.28515625 C4.83232422 8.13400391 4.83232422 8.13400391 5 9 C4.01 8.67 3.02 8.34 2 8 C1.01 8.495 1.01 8.495 0 9 C0.185625 8.443125 0.37125 7.88625 0.5625 7.3125 C1.07551165 4.600867 0.6640724 2.65628961 0 0 Z " fill="#3C3F44" transform="translate(567,617)"/>
<path d="M0 0 C2.60608273 2.5162178 4.89381685 5.05134359 7 8 C6.67 8.66 6.34 9.32 6 10 C3.525 9.01 3.525 9.01 1 8 C1.020625 7.236875 1.04125 6.47375 1.0625 5.6875 C1.12942841 2.89814214 1.12942841 2.89814214 0 0 Z " fill="#B5B6B6" transform="translate(773,605)"/>
<path d="M0 0 C2.39456443 2.39456443 2.75546876 3.65807308 3 7 C1.6875 8.8125 1.6875 8.8125 0 10 C-0.66 10 -1.32 10 -2 10 C-1.34 6.7 -0.68 3.4 0 0 Z " fill="#C5C6C9" transform="translate(578,635)"/>
<path d="M0 0 C0 0.66 0 1.32 0 2 C-1.32 2 -2.64 2 -4 2 C-4.2475 2.804375 -4.495 3.60875 -4.75 4.4375 C-5.1625 5.283125 -5.575 6.12875 -6 7 C-8.078125 7.66015625 -8.078125 7.66015625 -10 8 C-9.23883449 6.84772177 -8.46567307 5.7033614 -7.6875 4.5625 C-7.25824219 3.92441406 -6.82898438 3.28632813 -6.38671875 2.62890625 C-4.52588462 0.44308137 -2.83687735 0 0 0 Z " fill="#AEAFB0" transform="translate(474,495)"/>
<path d="M0 0 C0.33 0.66 0.66 1.32 1 2 C0.67 2.66 0.34 3.32 0 4 C-0.66 4 -1.32 4 -2 4 C-2.33 5.32 -2.66 6.64 -3 8 C-4.32 8.33 -5.64 8.66 -7 9 C-7 7 -7 7 -5.125 4.875 C-3 3 -3 3 -1 3 C-0.67 2.01 -0.34 1.02 0 0 Z " fill="#454851" transform="translate(771,776)"/>
<path d="M0 0 C0.33 1.32 0.66 2.64 1 4 C0.01 4 -0.98 4 -2 4 C-2.268125 4.61875 -2.53625 5.2375 -2.8125 5.875 C-4 8 -4 8 -7 10 C-5.33248852 6.05860922 -2.77289351 3.2107188 0 0 Z " fill="#9A9DA5" transform="translate(525,665)"/>
<path d="M0 0 C0.33 0 0.66 0 1 0 C1.21192221 5.19209404 0.5912689 9.126739 -1 14 C-1.33 14 -1.66 14 -2 14 C-2.1799928 8.78020872 -1.97094808 4.92737019 0 0 Z " fill="#27272E" transform="translate(788,736)"/>
<path d="M0 0 C1.44977894 2.34112451 2.04314411 3.5796929 1.7578125 6.359375 C1.54898437 7.14828125 1.34015625 7.9371875 1.125 8.75 C0.92132813 9.54921875 0.71765625 10.3484375 0.5078125 11.171875 C0.34023438 11.77515625 0.17265625 12.3784375 0 13 C-0.33 13 -0.66 13 -1 13 C-1.0272415 11.58344207 -1.04650467 10.16672955 -1.0625 8.75 C-1.07410156 7.96109375 -1.08570313 7.1721875 -1.09765625 6.359375 C-1.00385306 4.09308998 -0.63241063 2.1711105 0 0 Z " fill="#D6D8D9" transform="translate(509,695)"/>
<path d="M0 0 C0.66 0.33 1.32 0.66 2 1 C-0.3125 3.5 -0.3125 3.5 -3 6 C-3.99 6 -4.98 6 -6 6 C-6 5.34 -6 4.68 -6 4 C-4.03852126 2.61061923 -2.03833424 1.2739589 0 0 Z " fill="#ABACB0" transform="translate(672,596)"/>
<path d="M0 0 C5.859375 -0.390625 5.859375 -0.390625 8 0 C9.32 1.32 10.64 2.64 12 4 C6.06 2.515 6.06 2.515 0 1 C0 0.67 0 0.34 0 0 Z " fill="#6A6B6E" transform="translate(735,581)"/>
<path d="M0 0 C1.98 0 3.96 0 6 0 C1.375 4 1.375 4 -2 4 C-1.34 2.68 -0.68 1.36 0 0 Z " fill="#56555C" transform="translate(683,586)"/>
</svg>
